<svg width="20" height="20" viewBox="0 0 20 20" fill="none" xmlns="http://www.w3.org/2000/svg">
<g clip-path="url(#clip0_1_667)">
<path fill-rule="evenodd" clip-rule="evenodd" d="M9.99951 0C4.48389 0 -0.000488281 4.48438 -0.000488281 10C-0.000488281 15.5156 4.48389 20 9.99951 20C15.5151 20 19.9995 15.5156 19.9995 10C19.9995 4.48438 15.5151 0 9.99951 0Z" fill="#013366"/>
<path fill-rule="evenodd" clip-rule="evenodd" d="M14.8354 6.62891C15.0776 6.87109 15.0776 7.26953 14.8354 7.51172L8.97607 13.3711C8.85498 13.4922 8.69482 13.5547 8.53467 13.5547C8.37451 13.5547 8.21436 13.4922 8.09326 13.3711L5.16357 10.4414C4.92139 10.1992 4.92139 9.80078 5.16357 9.55859C5.40576 9.31641 5.8042 9.31641 6.04639 9.55859L8.53467 12.0469L13.9526 6.62891C14.1948 6.38281 14.5933 6.38281 14.8354 6.62891Z" fill="white"/>
</g>
<defs>
<clipPath id="clip0_1_667">
<rect width="20" height="20" fill="white" transform="translate(-0.000488281)"/>
</clipPath>
</defs>
</svg>
