<svg width="161" height="160" viewBox="0 0 161 160" fill="none" xmlns="http://www.w3.org/2000/svg">
<path d="M70.4589 65.46C71.0376 64.9187 71.6723 64.4053 72.3629 63.92C73.0723 63.4347 73.8376 63.0053 74.6589 62.632C75.4989 62.2587 76.3949 61.9693 77.3469 61.764C78.3176 61.54 79.3629 61.428 80.4829 61.428C81.9576 61.428 83.3203 61.6427 84.5709 62.072C85.8403 62.5013 86.9323 63.108 87.8469 63.892C88.7616 64.676 89.4803 65.628 90.0029 66.748C90.5256 67.868 90.7869 69.128 90.7869 70.528C90.7869 71.9467 90.5723 73.1693 90.1429 74.196C89.7323 75.2227 89.2003 76.128 88.5469 76.912C87.9123 77.6773 87.2123 78.3493 86.4469 78.928C85.7003 79.488 84.9909 80.02 84.3189 80.524C83.6469 81.028 83.0683 81.532 82.5829 82.036C82.1163 82.54 81.8456 83.1 81.7709 83.716L81.2669 88H77.8509L77.5149 83.352C77.4403 82.512 77.5989 81.784 77.9909 81.168C78.3829 80.5333 78.8963 79.9453 79.5309 79.404C80.1656 78.844 80.8656 78.3027 81.6309 77.78C82.3963 77.2387 83.1056 76.6413 83.7589 75.988C84.4309 75.3347 84.9909 74.5973 85.4389 73.776C85.8869 72.936 86.1109 71.9373 86.1109 70.78C86.1109 69.9773 85.9523 69.2493 85.6349 68.596C85.3176 67.9427 84.8883 67.392 84.3469 66.944C83.8056 66.4773 83.1616 66.1227 82.4149 65.88C81.6869 65.6373 80.9029 65.516 80.0629 65.516C78.9243 65.516 77.9443 65.656 77.1229 65.936C76.3203 66.216 75.6389 66.524 75.0789 66.86C74.5189 67.196 74.0616 67.504 73.7069 67.784C73.3709 68.064 73.0909 68.204 72.8669 68.204C72.4003 68.204 72.0363 67.9893 71.7749 67.56L70.4589 65.46ZM75.9189 98.92C75.9189 98.4347 76.0029 97.9773 76.1709 97.548C76.3576 97.1187 76.6003 96.7453 76.8989 96.428C77.2163 96.1107 77.5896 95.8587 78.0189 95.672C78.4483 95.4853 78.9056 95.392 79.3909 95.392C79.8763 95.392 80.3336 95.4853 80.7629 95.672C81.1923 95.8587 81.5656 96.1107 81.8829 96.428C82.2003 96.7453 82.4523 97.1187 82.6389 97.548C82.8256 97.9773 82.9189 98.4347 82.9189 98.92C82.9189 99.424 82.8256 99.8907 82.6389 100.32C82.4523 100.731 82.2003 101.095 81.8829 101.412C81.5656 101.729 81.1923 101.972 80.7629 102.14C80.3336 102.327 79.8763 102.42 79.3909 102.42C78.9056 102.42 78.4483 102.327 78.0189 102.14C77.5896 101.972 77.2163 101.729 76.8989 101.412C76.6003 101.095 76.3576 100.731 76.1709 100.32C76.0029 99.8907 75.9189 99.424 75.9189 98.92Z" fill="#013366"/>
</svg>
